<svg xmlns="http://www.w3.org/2000/svg" viewBox="0 0 600 440" role="img"><title>Experiment K₂O (wt%) versus Modeled K₂O (wt%)</title><rect width="600" height="440" fill="white"/><g font-family="Avenir Next, sans-serif" font-size="17" fill="#173033"><path d="M76 348.0H556" stroke="#e3e9e7"/><text x="66" y="353.0" text-anchor="end">0.1</text><text x="76.0" y="372" text-anchor="middle">0.1</text><path d="M76 278.0H556" stroke="#e3e9e7"/><text x="66" y="283.0" text-anchor="end">0.25</text><text x="196.0" y="372" text-anchor="middle">0.25</text><path d="M76 207.99999999999997H556" stroke="#e3e9e7"/><text x="66" y="212.99999999999997" text-anchor="end">0.4</text><text x="316.00000000000006" y="372" text-anchor="middle">0.4</text><path d="M76 138.0H556" stroke="#e3e9e7"/><text x="66" y="143.0" text-anchor="end">0.55</text><text x="436.0" y="372" text-anchor="middle">0.55</text><path d="M76 68.0H556" stroke="#e3e9e7"/><text x="66" y="73.0" text-anchor="end">0.7</text><text x="556.0" y="372" text-anchor="middle">0.7</text><path d="M76 68V348H556" fill="none" stroke="#82958f"/><path d="M76.0 348.0L556.0 68.0" stroke="#8b9894" stroke-dasharray="5 5"/><defs><clipPath id="plot"><rect x="76" y="68" width="480" height="280"/></clipPath></defs><g clip-path="url(#plot)"><circle cx="476.000" cy="133.333" r="6" fill="#46658f" fill-opacity="0.9"/><circle cx="364.000" cy="203.333" r="6" fill="#46658f" fill-opacity="0.9"/><circle cx="292.000" cy="236.000" r="6" fill="#46658f" fill-opacity="0.9"/><circle cx="188.000" cy="287.333" r="6" fill="#46658f" fill-opacity="0.9"/><circle cx="132.000" cy="292.000" r="6" fill="#46658f" fill-opacity="0.9"/></g><text x="460" y="120" transform="rotate(-30.26 460 120)" font-size="20" fill="#687c76">1:1</text><text x="316" y="414" text-anchor="middle" font-size="19">Modeled K₂O (wt%)</text><text transform="translate(22 210) rotate(-90)" text-anchor="middle" font-size="19">Experiment K₂O (wt%)</text></g></svg>